<svg width="1200" height="630" viewBox="0 0 1200 630" xmlns="http://www.w3.org/2000/svg">
  <defs>
    <linearGradient id="bgGrad" x1="0%" y1="0%" x2="100%" y2="100%">
      <stop offset="0%" style="stop-color:#0a0a0a"/>
      <stop offset="100%" style="stop-color:#111111"/>
    </linearGradient>
    <linearGradient id="textGrad" x1="0%" y1="0%" x2="100%" y2="0%">
      <stop offset="0%" style="stop-color:#ffffff"/>
      <stop offset="100%" style="stop-color:#B2E969"/>
    </linearGradient>
    <filter id="glow" x="-50%" y="-50%" width="200%" height="200%">
      <feGaussianBlur stdDeviation="20" result="coloredBlur"/>
      <feMerge>
        <feMergeNode in="coloredBlur"/>
        <feMergeNode in="SourceGraphic"/>
      </feMerge>
    </filter>
  </defs>
  
  <!-- Background -->
  <rect width="1200" height="630" fill="url(#bgGrad)"/>
  
  <!-- Subtle glow effect -->
  <ellipse cx="600" cy="315" rx="400" ry="200" fill="#B2E969" opacity="0.08" filter="url(#glow)"/>
  
  <!-- Terminal icon -->
  <g transform="translate(440, 180)">
    <svg viewBox="0 0 576 512" width="80" height="80">
      <path fill="#B2E969" d="M9.4 86.6C-3.1 74.1-3.1 53.9 9.4 41.4s32.8-12.5 45.3 0l192 192c12.5 12.5 12.5 32.8 0 45.3l-192 192c-12.5 12.5-32.8 12.5-45.3 0s-12.5-32.8 0-45.3L178.7 256 9.4 86.6zM256 416H544c17.7 0 32 14.3 32 32s-14.3 32-32 32H256c-17.7 0-32-14.3-32-32s14.3-32 32-32z"/>
    </svg>
  </g>
  
  <!-- Main title -->
  <text x="540" y="230" font-family="Menlo, Monaco, Consolas, monospace" font-size="72" font-weight="700" fill="url(#textGrad)">aidevops</text>
  
  <!-- Tagline -->
  <text x="600" y="320" font-family="Menlo, Monaco, Consolas, monospace" font-size="28" fill="#ffffff" opacity="0.7" text-anchor="middle">AI DevOps Framework</text>
  
  <!-- Description -->
  <text x="600" y="380" font-family="Menlo, Monaco, Consolas, monospace" font-size="20" fill="#ffffff" opacity="0.5" text-anchor="middle">Give your AI assistant DevOps superpowers</text>
  
  <!-- Install command box -->
  <rect x="300" y="430" width="600" height="60" rx="8" fill="#1a1a1a" stroke="#333333" stroke-width="1"/>
  <circle cx="325" cy="460" r="6" fill="#ff5f57"/>
  <circle cx="345" cy="460" r="6" fill="#febc2e"/>
  <circle cx="365" cy="460" r="6" fill="#28c840"/>
  <text x="400" y="467" font-family="Menlo, Monaco, Consolas, monospace" font-size="16" fill="#666666">$</text>
  <text x="420" y="467" font-family="Menlo, Monaco, Consolas, monospace" font-size="16" fill="#B2E969">aidevops.sh/install</text>
  
  <!-- URL -->
  <text x="600" y="570" font-family="Menlo, Monaco, Consolas, monospace" font-size="24" fill="#B2E969" text-anchor="middle">aidevops.sh</text>
</svg>
